<?xml version="1.0" encoding="UTF-8" standalone="no"?>
<svg
   width="187.08701"
   height="31.268999"
   viewBox="0 0 187.08701 31.268999"
   version="1.1"
   xml:space="preserve"
   style="clip-rule:evenodd;fill-rule:evenodd;stroke-linejoin:round;stroke-miterlimit:2"
   id="svg5"
   sodipodi:docname="boss.svg"
   inkscape:version="1.4.4 (dcaf3e7, 2026-05-05)"
   xmlns:inkscape="http://www.inkscape.org/namespaces/inkscape"
   xmlns:sodipodi="http://sodipodi.sourceforge.net/DTD/sodipodi-0.dtd"
   xmlns="http://www.w3.org/2000/svg"
   xmlns:svg="http://www.w3.org/2000/svg"><defs
   id="defs5" /><sodipodi:namedview
   id="namedview5"
   pagecolor="#ffffff"
   bordercolor="#000000"
   borderopacity="0.25"
   inkscape:showpageshadow="2"
   inkscape:pageopacity="0.0"
   inkscape:pagecheckerboard="0"
   inkscape:deskcolor="#d1d1d1"
   inkscape:zoom="1.6538535"
   inkscape:cx="-42.930042"
   inkscape:cy="-30.534748"
   inkscape:window-width="1545"
   inkscape:window-height="820"
   inkscape:window-x="0"
   inkscape:window-y="33"
   inkscape:window-maximized="0"
   inkscape:current-layer="svg5" />
    <g
   id="g5"
   transform="translate(-3.094,-81.421)">
        
        <path
   d="m 73.286,81.421 c 2.221,0 4.039,1.817 4.039,4.039 v 7.557 c 0,2.221 -1.818,4.039 -4.039,4.039 2.221,0 4.039,1.817 4.039,4.038 v 7.558 c 0,2.221 -1.818,4.038 -4.039,4.038 H 41.871 V 81.421 h 7.817 v 23.547 h 19.19 c 0.389,0 0.708,-0.319 0.708,-0.708 v -3.005 c 0,-0.39 -0.319,-0.709 -0.708,-0.709 H 53.715 v -7.438 h 15.163 c 0.389,0 0.708,-0.319 0.708,-0.709 v -3.005 c 0,-0.39 -0.319,-0.709 -0.708,-0.709 H 53.715 v -7.264 z"
   style="display:inline;fill:#231f20"
   id="path1" />
        <path
   d="m 113.368,108.652 c 0,2.221 -1.817,4.038 -4.038,4.038 H 84.662 c -2.221,0 -4.038,-1.817 -4.038,-4.038 V 85.46 c 0,-2.222 1.817,-4.039 4.038,-4.039 h 24.668 c 2.221,0 4.038,1.817 4.038,4.039 z m -7.79,-18.372 c 0,-0.545 -0.447,-0.992 -0.992,-0.992 h -15.18 c -0.546,0 -0.992,0.447 -0.992,0.992 v 13.551 c 0,0.545 0.446,0.992 0.992,0.992 h 15.18 c 0.545,0 0.992,-0.447 0.992,-0.992 z"
   style="fill:#231f20"
   id="path2" />
        <path
   d="m 143.738,91.658 v -1.091 c 0,-0.272 -0.111,-0.521 -0.291,-0.7 -0.18,-0.18 -0.428,-0.292 -0.701,-0.292 H 126.15 c -0.273,0 -0.521,0.112 -0.701,0.292 -0.179,0.179 -0.291,0.428 -0.291,0.7 v 2.207 c 0,0.273 0.112,0.521 0.291,0.7 0.18,0.18 0.428,0.292 0.701,0.292 h 21.582 c 2.221,0 4.038,1.817 4.038,4.039 v 10.847 c 0,2.221 -1.817,4.038 -4.038,4.038 h -26.326 c -2.221,0 -4.038,-1.817 -4.038,-4.038 v -5.388 h 7.79 v 1.316 c 0,0.273 0.112,0.521 0.291,0.701 0.18,0.18 0.428,0.291 0.701,0.291 h 16.596 c 0.273,0 0.521,-0.111 0.701,-0.291 0.18,-0.18 0.291,-0.428 0.291,-0.701 v -2.49 c 0,-0.273 -0.111,-0.521 -0.291,-0.701 -0.18,-0.18 -0.428,-0.291 -0.701,-0.291 h -21.34 c -2.221,0 -4.038,-1.817 -4.038,-4.039 V 85.46 c 0,-2.222 1.817,-4.039 4.038,-4.039 h 26.326 c 2.221,0 4.038,1.817 4.038,4.039 v 6.198 z"
   style="fill:#231f20"
   id="path3" />
        <path
   d="m 182.149,91.658 v -1.091 c 0,-0.272 -0.111,-0.521 -0.292,-0.7 -0.179,-0.18 -0.427,-0.292 -0.7,-0.292 H 164.56 c -0.273,0 -0.52,0.112 -0.7,0.292 -0.18,0.179 -0.292,0.428 -0.292,0.7 v 2.207 c 0,0.273 0.112,0.521 0.292,0.7 0.18,0.18 0.427,0.292 0.7,0.292 h 21.582 c 2.222,0 4.039,1.817 4.039,4.039 v 10.847 c 0,2.221 -1.817,4.038 -4.039,4.038 h -26.326 c -2.221,0 -4.038,-1.817 -4.038,-4.038 v -5.388 h 7.79 v 1.316 c 0,0.273 0.112,0.521 0.292,0.701 0.18,0.18 0.427,0.291 0.7,0.291 h 16.597 c 0.273,0 0.521,-0.111 0.7,-0.291 0.181,-0.18 0.292,-0.428 0.292,-0.701 v -2.49 c 0,-0.273 -0.111,-0.521 -0.292,-0.701 -0.179,-0.18 -0.427,-0.291 -0.7,-0.291 h -21.341 c -2.221,0 -4.038,-1.817 -4.038,-4.039 V 85.46 c 0,-2.222 1.817,-4.039 4.038,-4.039 h 26.326 c 2.222,0 4.039,1.817 4.039,4.039 v 6.198 z"
   style="fill:#231f20"
   id="path4" />
        <path
   d="M 35.339,81.493 H 12.592 v 6.166 h 6.625 c 4.801,0 8.707,3.906 8.707,8.707 0,4.801 -3.906,8.707 -8.707,8.707 -4.802,0 -8.708,-3.906 -8.708,-8.707 V 81.493 H 3.094 v 30.912 h 32.245 z m -2.5,2.499 v 25.913 H 5.594 V 83.992 H 8.01 v 12.374 c 0,6.179 5.027,11.206 11.207,11.206 6.179,0 11.206,-5.027 11.206,-11.206 0,-6.18 -5.027,-11.207 -11.206,-11.207 h -4.125 v -1.167 z"
   style="display:inline;fill:#231f20"
   id="path5" />
    </g>
</svg>
